PathFileType	4	(X/Y/Z)	s10c0302.trc
DataRate	CameraRate	NumFrames	NumMarkers	Units	OrigDataRate	OrigDataStartFrame	OrigNumFrames
200	200	6	50	mm	200	1000	2000
Frame#	Time	racr			lacr			c7			jug			rlel			rdr			llel			ldr			s2			lic			ric			lasi			rasi			rpsi			lpsi			rgt			lgt			rth1			rth2			rth3			rth4			rlfc			rmfc			rsh1			rsh2			rsh3			rsh4			rlmal			rmmal			rcal			rtoe			rmt5			lth1			lth2			lth4			lth3			llfc			lmfc			llmal			lmmal			lcal			lmt5			lsh1			lsh2			lsh3			lsh4			ltoe			SBIKE			LBIKE			RBIKE			
		X1	Y1	Z1	X2	Y2	Z2	X3	Y3	Z3	X4	Y4	Z4	X5	Y5	Z5	X6	Y6	Z6	X7	Y7	Z7	X8	Y8	Z8	X9	Y9	Z9	X10	Y10	Z10	X11	Y11	Z11	X12	Y12	Z12	X13	Y13	Z13	X14	Y14	Z14	X15	Y15	Z15	X16	Y16	Z16	X17	Y17	Z17	X18	Y18	Z18	X19	Y19	Z19	X20	Y20	Z20	X21	Y21	Z21	X22	Y22	Z22	X23	Y23	Z23	X24	Y24	Z24	X25	Y25	Z25	X26	Y26	Z26	X27	Y27	Z27	X28	Y28	Z28	X29	Y29	Z29	X30	Y30	Z30	X31	Y31	Z31	X32	Y32	Z32	X33	Y33	Z33	X34	Y34	Z34	X35	Y35	Z35	X36	Y36	Z36	X37	Y37	Z37	X38	Y38	Z38	X39	Y39	Z39	X40	Y40	Z40	X41	Y41	Z41	X42	Y42	Z42	X43	Y43	Z43	X44	Y44	Z44	X45	Y45	Z45	X46	Y46	Z46	X47	Y47	Z47	X48	Y48	Z48	X49	Y49	Z49	X50	Y50	Z50	
1000	5.0000	673.104630	1297.506178	-65.447283	657.590311	1322.715149	-393.406934	660.530666	1344.935176	-222.246296	647.324160	1200.466410	-232.282875	558.082658	1059.582611	36.874065	643.213679	879.292997	-57.522928	559.420472	1071.381218	-499.553653	646.453064	880.332559	-415.211917	134.576057	1167.422764	-223.327884	290.894054	1167.708013	-379.847446	312.369836	1147.650270	-92.359485	317.378671	1072.548289	-352.862014	300.780942	1069.506866	-95.141520	179.401373	1217.122808	-162.693925	189.829048	1223.170331	-273.106953	185.955301	1062.550506	-38.062318	203.103205	1040.143419	-416.284321	257.938516	922.244000	-19.710991	325.387557	865.315719	-31.985827	353.464264	784.721183	-40.884025	354.885839	888.075905	-38.323839	422.994219	687.233951	-62.245023	409.901992	678.827551	-174.450933	356.539690	596.374800	-30.062725	334.224435	511.837148	-46.051271	275.374217	448.570946	-46.125816	357.332533	502.691228	-75.887104	223.449191	360.936871	-59.875861	242.649491	376.927405	-142.771293	164.217396	338.586100	-103.454020	405.371227	310.453237	-105.327006	324.221364	285.668110	-40.319109	268.598081	920.672059	-421.578461	328.482195	860.790696	-402.160886	356.871762	879.820973	-389.186318	351.857950	776.223863	-393.373526	390.006184	672.740852	-372.322985	377.641532	667.896488	-252.414428	59.387252	476.718591	-394.898603	68.338352	464.039293	-316.145969	17.614081	511.078783	-348.758618	18.690556	330.284365	-399.006689	281.480000	616.892484	-412.386903	226.720502	551.358013	-400.672648	143.068011	519.200929	-405.173027	242.288213	531.743216	-371.649135	67.886935	261.426010	-337.841080	-217.256366	832.303219	-213.684991	-103.901938	80.554770	-418.262986	-103.901560	80.463783	-18.305187	
1001	5.0050	670.015639	1299.207006	-64.874933	658.886761	1324.154684	-393.871844	659.536154	1345.863720	-222.410979	647.539169	1201.261239	-233.480671	556.580816	1060.381535	34.490330	643.247555	879.473497	-57.724407	561.345344	1072.101779	-499.710504	646.701756	880.223100	-414.860767	133.967601	1165.698527	-220.497434	288.853090	1167.086927	-378.939838	314.565829	1146.226396	-91.619577	315.682731	1072.064149	-351.771077	303.160180	1067.835841	-93.822924	180.639485	1214.243929	-159.705934	189.054897	1221.535293	-270.513347	188.882150	1058.465922	-35.645356	201.973277	1039.341382	-413.768321	259.428001	917.252950	-18.133853	325.026869	858.091896	-32.138860	350.669740	776.637687	-41.675703	355.214471	879.985928	-38.874075	415.954552	677.691435	-64.499687	402.109409	669.247126	-174.935216	348.949959	588.241077	-30.928651	328.365160	503.065291	-46.222976	270.635274	438.845200	-46.608900	352.049359	494.077722	-75.598276	220.072620	349.616842	-60.023896	239.546130	365.441875	-142.958580	161.194411	327.369823	-103.567059	402.613226	299.975096	-105.249095	321.388542	274.885255	-40.220815	269.212666	921.479292	-420.622457	330.233345	862.483791	-401.639200	358.451023	881.981059	-388.831035	354.410780	777.804606	-392.413928	395.748015	675.835164	-372.055069	381.223363	671.281828	-251.312982	63.365590	486.605704	-394.456327	71.878999	473.431052	-315.692005	21.915904	521.303849	-348.428891	21.389341	340.617612	-399.055528	287.816130	621.466981	-411.546716	231.657932	555.834044	-398.762854	147.804742	526.018569	-404.546772	246.936602	537.247161	-370.204244	70.046994	271.269017	-337.938750	-217.243182	832.284529	-213.689070	-103.895923	80.520999	-418.249883	-103.881580	80.447642	-18.285525	
1002	5.0100	667.105754	1300.758168	-64.229118	660.249270	1325.588189	-393.974644	658.594269	1346.715023	-222.528794	647.803008	1202.374794	-235.055757	555.081685	1061.153555	32.129019	643.273340	879.576010	-57.827021	563.544796	1073.036362	-499.857697	647.114306	880.775370	-416.060278	133.800639	1163.382429	-216.932709	288.269865	1166.723513	-379.207289	316.563059	1144.689526	-90.791310	312.664082	1070.764022	-349.645481	304.922618	1065.329341	-94.888209	182.359008	1211.442746	-157.001802	188.078762	1219.776522	-267.905745	191.909214	1054.065536	-33.456625	200.756439	1038.400127	-411.345616	260.796158	911.614219	-17.473270	324.419824	850.596267	-32.466734	347.623869	768.590110	-42.722270	355.188460	871.821153	-39.509178	408.637536	669.936533	-66.825216	391.459638	660.754546	-176.753378	340.672627	580.438438	-31.917272	322.240179	494.680081	-46.482599	265.782760	429.188007	-47.145466	347.484315	485.689790	-75.313244	216.293378	338.878752	-59.842089	235.859963	354.592486	-143.239308	157.810259	316.584955	-103.364741	399.297539	289.614457	-104.329145	317.984112	264.172565	-40.215499	269.792519	922.006991	-419.758480	331.913888	864.220149	-401.196284	359.922574	884.174528	-388.495290	357.407361	779.852930	-392.192572	401.691416	679.005599	-371.971930	385.496948	675.307885	-250.899624	67.600826	496.018471	-393.791065	75.908608	483.632650	-314.287292	26.418356	531.370419	-348.076529	24.740347	350.887309	-399.107805	294.161245	626.584272	-410.930229	237.045567	561.615943	-398.034229	152.373741	532.902480	-403.585153	251.929964	543.110117	-369.210769	72.915693	281.256480	-338.116077	-217.250152	832.269711	-213.685019	-103.870986	80.512143	-418.234931	-103.880712	80.458331	-18.276115	
1003	5.0150	664.266207	1302.206052	-63.849552	661.597913	1326.974770	-394.055041	657.493624	1347.664664	-222.700184	647.932046	1203.331692	-236.266000	553.618196	1061.769639	29.939987	643.243832	879.625638	-57.843720	566.027318	1073.837519	-499.590489	647.268321	880.698274	-415.836472	133.621136	1160.842740	-213.166197	285.894565	1165.720364	-377.804263	317.962686	1142.043558	-92.630480	310.716992	1070.136745	-348.387858	307.334220	1063.247246	-93.927314	182.732029	1208.975945	-153.910484	187.018349	1217.788086	-265.313645	195.025434	1049.484437	-31.169867	199.444237	1037.214295	-408.982357	261.842958	905.741721	-16.549386	323.540149	843.134861	-32.932102	344.224339	760.603242	-43.963992	354.465990	863.390783	-40.945529	400.954455	663.465423	-69.024930	380.602675	654.029468	-179.425127	332.516630	572.583077	-33.015411	315.672947	486.407615	-47.210203	260.720312	419.757236	-47.555493	341.766042	477.802214	-75.172598	212.358570	328.568747	-59.533267	232.298366	344.320585	-142.953305	154.892050	305.788248	-104.170798	395.536064	279.150348	-104.347046	314.143581	253.790714	-40.130565	270.237406	922.430719	-418.940821	333.590045	865.788254	-400.728065	361.299661	886.306595	-388.160171	360.550806	781.883470	-391.921441	407.713993	682.228310	-371.785202	389.865497	678.832192	-250.989388	72.486375	506.104112	-393.458412	79.849654	492.267415	-314.815546	31.089237	541.339910	-347.922927	28.734340	360.985467	-399.084975	300.552167	632.262032	-410.582799	242.688888	568.128619	-397.757379	157.604138	540.445609	-403.120995	257.281841	549.398398	-368.773402	76.532090	290.952039	-338.124580	-217.236432	832.247759	-213.735043	-103.876757	80.501140	-418.226165	-103.870374	80.432099	-18.286093	
1004	5.0200	661.665428	1303.413282	-63.486513	662.905365	1328.374700	-394.084133	656.457539	1348.385682	-222.980006	647.923859	1204.259494	-237.829071	552.333488	1062.307625	28.136711	643.170702	879.624067	-57.725717	568.567299	1074.585661	-499.410399	647.443461	880.629983	-415.589220	132.863249	1158.679827	-210.812287	283.637184	1164.789985	-376.471548	319.698029	1140.503889	-91.837455	308.626287	1069.447701	-347.054687	309.748762	1061.204167	-93.131884	182.851321	1206.369739	-150.932508	185.762690	1215.634208	-262.657224	198.177155	1044.799374	-28.983648	197.931790	1035.956450	-406.729524	262.525167	899.754210	-15.651441	322.246958	835.601514	-33.561084	340.131774	752.669639	-45.418834	353.001692	855.170513	-42.414557	393.093908	657.470705	-70.881562	369.691562	648.771505	-181.941754	324.275711	564.951411	-34.000112	309.172615	478.255807	-47.685782	255.534563	410.553119	-47.814741	335.549713	469.947109	-75.475270	208.089291	318.869350	-59.032300	228.608803	334.473100	-142.740066	150.772123	296.447920	-103.801751	391.402476	268.505829	-104.418707	309.844952	243.646384	-40.087407	270.755381	922.794933	-418.237664	335.116207	867.488760	-399.783456	362.558026	887.990511	-386.702711	363.878326	783.971715	-391.585750	413.945644	685.755647	-371.825266	394.818990	682.152430	-251.163076	77.690518	515.802145	-393.287423	84.303652	501.569604	-314.701365	35.962841	551.058751	-347.668768	33.446571	370.894007	-399.159897	306.973706	638.415624	-410.555569	248.550106	575.798836	-398.194008	162.892391	548.287083	-402.635904	262.978698	556.390449	-369.117277	81.057636	300.713782	-338.220840	-217.259299	832.230471	-213.720960	-103.883109	80.506831	-418.235793	-103.868507	80.385046	-18.282279	
1005	5.0250	659.319206	1304.608799	-63.536318	664.117631	1329.789208	-394.172878	655.452889	1349.215636	-223.320058	647.597120	1205.283494	-239.126041	551.258991	1062.768862	26.796130	643.058245	879.533959	-57.637530	571.152048	1075.344321	-499.186273	647.598889	880.678864	-415.459650	132.342612	1156.138863	-206.761177	281.332547	1163.853574	-375.154603	321.381750	1138.916718	-91.086965	306.457562	1068.761876	-345.745401	312.127375	1058.852022	-92.444463	183.068056	1203.450081	-148.097906	184.490143	1213.413164	-259.971806	201.268945	1040.055320	-26.694110	196.337842	1034.585701	-404.624336	262.943229	894.122622	-14.217184	320.210722	828.561671	-34.160572	335.246683	745.210224	-47.607399	351.524080	847.262534	-43.495511	385.087849	651.544454	-72.836999	358.834910	643.327130	-183.933909	315.948368	557.696998	-34.929897	302.690842	470.495007	-48.052687	250.260619	401.820278	-48.095285	329.243481	462.596354	-75.810308	203.597435	309.740163	-58.675765	224.220335	325.288696	-142.622470	146.284023	288.086851	-103.467281	386.736487	258.009240	-104.402000	305.007909	233.798050	-39.985682	271.172782	922.932928	-417.428558	336.806018	869.072871	-399.122097	363.880237	890.240482	-386.164993	367.362069	786.252665	-391.357836	420.250118	689.570142	-371.793362	400.276903	685.478345	-251.582096	82.919210	525.209616	-393.060922	90.329732	511.645232	-312.785464	40.795305	560.605221	-347.379032	38.619486	380.511071	-399.216964	313.349251	644.866691	-410.663371	254.222372	582.808371	-398.208765	168.726715	556.677618	-402.739374	267.861474	562.773637	-367.624723	86.303758	310.418135	-338.322477	-217.267802	832.217501	-213.692728	-103.899058	80.513912	-418.254377	-103.876963	80.376377	-18.310898	
